<?xml version="1.0" encoding="UTF-8"?>
<svg xmlns="http://www.w3.org/2000/svg" width="512" height="512" viewBox="-30 0 256 256" fill="#ffffff">
	<g clip-path="url(#clip0_27744_44105)">
		<path d="M128 256C198.692 256 256 198.692 256 128C256 57.3075 198.692 0 128 0C57.3075 0 0 57.3075 0 128C0 198.692 57.3075 256 128 256Z" fill="#ffffff"></path>
		<path d="M200.562 135.874C196.523 131.793 191.049 129.453 185.308 129.352V98.1678C185.31 97.7899 185.216 97.4175 185.037 97.085C184.857 96.7525 184.597 96.4705 184.28 96.2648L128.111 58.8039C127.733 58.5479 127.287 58.4111 126.83 58.4111C126.373 58.4111 125.927 58.5479 125.548 58.8039L69.7024 96.0346C69.3851 96.2438 69.1249 96.5287 68.9454 96.8636C68.7659 97.1985 68.6726 97.5729 68.6741 97.9529V150.269C68.6677 150.656 68.7602 151.038 68.9428 151.379C69.1254 151.72 69.3922 152.009 69.7177 152.218L126.991 189.71C127.372 189.96 127.817 190.093 128.272 190.093C128.728 190.093 129.173 189.96 129.554 189.71L166.386 164.112C166.548 163.99 166.697 163.851 166.831 163.697L182.392 191.014C182.592 191.362 182.878 191.653 183.221 191.859C183.565 192.066 183.956 192.182 184.356 192.196C184.747 192.196 185.132 192.096 185.473 191.905C185.814 191.715 186.101 191.439 186.305 191.106L203.724 163.406C203.8 163.291 203.862 163.168 203.908 163.038C206.47 158.792 207.537 153.81 206.939 148.887C206.341 143.964 204.112 139.383 200.608 135.874H200.562ZM128.28 132.697L102.866 115.816L153.771 81.4554L179.676 98.7203L128.28 132.697ZM126.745 63.4846L149.566 78.693L98.7227 113.023L75.5954 97.6767L126.745 63.4846ZM73.2781 101.575L125.456 136.35V183.188L73.2781 149.026V101.575ZM130.06 183.74V137.041L180.704 103.554V129.72C175.61 130.681 171.011 133.387 167.697 137.373C164.383 141.358 162.563 146.375 162.549 151.558C162.473 154.495 163.138 157.403 164.483 160.014C164.263 160.077 164.056 160.175 163.869 160.306L130.06 183.74ZM202.45 151.604C202.435 154.924 201.489 158.173 199.718 160.981C199.653 161.094 199.596 161.212 199.549 161.334L184.494 185.382L170.053 159.892C169.914 159.517 169.681 159.185 169.378 158.925C168.304 158.05 167.153 155.38 167.153 151.604C167.153 146.92 169.014 142.427 172.326 139.114C175.639 135.802 180.132 133.941 184.817 133.941C187.136 133.937 189.433 134.391 191.577 135.277C193.72 136.164 195.667 137.466 197.305 139.107C198.944 140.748 200.242 142.698 201.125 144.842C202.008 146.987 202.458 149.285 202.45 151.604Z" fill="#e03428"></path>
		<path d="M184.815 140.784C182.236 140.784 179.762 141.807 177.936 143.628C176.109 145.448 175.079 147.919 175.07 150.499C175.064 151.779 175.312 153.049 175.798 154.234C176.285 155.419 177 156.496 177.905 157.403C178.809 158.31 179.884 159.029 181.067 159.52C182.251 160.01 183.519 160.261 184.8 160.259C187.316 160.159 189.695 159.089 191.44 157.274C193.184 155.459 194.159 153.039 194.159 150.522C194.159 148.004 193.184 145.584 191.44 143.769C189.695 141.954 187.316 140.884 184.8 140.784H184.815ZM189.911 150.529C189.906 151.887 189.365 153.189 188.405 154.149C187.444 155.11 186.143 155.651 184.785 155.655C184.11 155.652 183.442 155.515 182.82 155.251C182.198 154.988 181.635 154.603 181.163 154.12C180.674 153.65 180.286 153.085 180.022 152.46C179.758 151.834 179.624 151.162 179.628 150.483C179.628 149.124 180.168 147.82 181.13 146.859C182.091 145.897 183.395 145.357 184.754 145.357C185.433 145.355 186.106 145.488 186.733 145.747C187.361 146.007 187.931 146.388 188.41 146.869C188.89 147.349 189.269 147.921 189.527 148.549C189.784 149.177 189.915 149.85 189.911 150.529Z" fill="#e03428"></path>
		<path d="M38.5989 108H-86V114.5H43.8324C44.3639 114.5 46.2038 114.289 47.3078 115.451C49.8836 120.366 51.0285 120.683 54.9127 121H70V114.5L51.8871 114.5C48.8615 114.5 47.962 113.285 47.962 113.285C47.962 113.285 46.49 108 38.5989 108Z" fill="#e03428"></path>
		<path d="M38.5989 121H-86V127.5H43.8324C44.3639 127.5 46.2038 127.289 47.3078 128.451C49.8836 133.366 51.0285 133.683 54.9127 134H70V127.5L51.8871 127.5C48.8615 127.5 47.962 126.285 47.962 126.285C47.962 126.285 46.49 121 38.5989 121Z" fill="#e03428"></path>
		<path d="M38.5989 134H-86V140.5H43.8324C44.3639 140.5 46.2038 140.289 47.3078 141.451C49.8836 146.366 51.0285 146.683 54.9127 147H70V140.5L51.8871 140.5C48.8615 140.5 47.962 139.285 47.962 139.285C47.962 139.285 46.49 134 38.5989 134Z" fill="#e03428"></path>
	</g>
	<defs>
		<clipPath id="clip0_27744_44105">
			<rect width="512" height="512" fill="#ffffff"></rect>
		</clipPath>
	</defs>
</svg> 