<svg width="20" height="20" viewBox="0 0 20 20" fill="none" xmlns="http://www.w3.org/2000/svg">
<path d="M10 11.1328C10.4315 11.1328 10.7812 10.783 10.7812 10.3516V0.78125C10.7812 0.349766 10.4315 0 10 0C9.56852 0 9.21875 0.349766 9.21875 0.78125V10.3516C9.21875 10.783 9.56852 11.1328 10 11.1328Z" fill="#FFB405"/>
<path d="M8.2991 14.3486C8.30043 14.35 8.30171 14.3513 8.30304 14.3526C8.76011 14.8097 9.36042 15.0381 9.96074 15.0381C10.5606 15.0381 11.1603 14.8099 11.6165 14.3537L15.9414 10.0457C16.2471 9.74125 16.248 9.2466 15.9436 8.94089C15.6391 8.63523 15.1444 8.63421 14.8387 8.93871L10.5128 13.2478C10.3652 13.3953 10.169 13.4766 9.96035 13.4766C9.75242 13.4766 9.55687 13.3959 9.40949 13.2494L5.16515 8.94375C4.86226 8.63644 4.36757 8.63293 4.06031 8.93582C3.75304 9.23871 3.74949 9.73336 4.05238 10.0407L8.2991 14.3486Z" fill="#FFB405"/>
<path d="M19.2188 16.0938C18.7873 16.0938 18.4375 16.4435 18.4375 16.875C18.4375 17.7366 17.7366 18.4375 16.875 18.4375H3.125C2.26344 18.4375 1.5625 17.7366 1.5625 16.875C1.5625 16.4435 1.21273 16.0938 0.78125 16.0938C0.349766 16.0938 0 16.4435 0 16.875C0 18.5981 1.40188 20 3.125 20H16.875C18.5981 20 20 18.5981 20 16.875C20 16.4435 19.6502 16.0938 19.2188 16.0938Z" fill="#FFB405"/>
</svg>
