<svg width="20" height="20" viewBox="0 0 20 20" fill="none" xmlns="http://www.w3.org/2000/svg">
<path d="M19.4854 14.7513L16.9991 12.265C16.3136 11.5796 15.1982 11.5796 14.5128 12.265L13.3827 13.3951C12.8634 13.9144 12.0184 13.9143 11.4992 13.3953L6.6008 8.4927C6.08029 7.97219 6.08021 7.12973 6.6008 6.60914C6.78283 6.42711 7.30553 5.90442 7.73092 5.47903C8.41338 4.7966 8.42292 3.68469 7.73026 2.99211L5.24463 0.514297C4.55916 -0.171133 3.4438 -0.171133 2.76017 0.512501C2.24861 1.01961 2.08361 1.1832 1.85423 1.41059C-0.61765 3.88242 -0.61765 7.90442 1.85411 10.3762L9.61553 18.1417C12.0932 20.6193 16.1034 20.6195 18.5812 18.1417L19.4854 17.2375C20.1708 16.5521 20.1708 15.4368 19.4854 14.7513ZM3.58712 1.34305C3.8156 1.11457 4.18732 1.11453 4.41654 1.34367L6.90217 3.82149C7.13119 4.05051 7.13119 4.42117 6.90217 4.65024L6.48775 5.06461L3.17486 1.75172L3.58712 1.34305ZM10.4444 17.313L2.68298 9.54747C0.770555 7.63504 0.665438 4.63211 2.3597 2.5941L5.66299 5.89739C4.79502 6.88133 4.83119 8.38067 5.77185 9.32133L10.6701 14.2237C10.6702 14.2238 10.6703 14.2238 10.6703 14.2239C11.61 15.1636 13.1092 15.2021 14.0944 14.3329L17.3977 17.6363C15.3662 19.3276 12.37 19.2386 10.4444 17.313ZM18.6566 16.4088L18.2422 16.8232L14.9272 13.5081L15.3415 13.0938C15.57 12.8653 15.9418 12.8652 16.1703 13.0938L18.6566 15.58C18.8851 15.8086 18.8851 16.1804 18.6566 16.4088Z" fill="#FFB405"/>
</svg>
